<svg width="235" height="42" viewBox="0 0 235 42" fill="none" xmlns="http://www.w3.org/2000/svg">
<path d="M35.5094 7.57141C35.5094 8.96203 29.0057 10.0893 20.9829 10.0893C12.96 10.0893 6.45626 8.96203 6.45626 7.57141C6.45626 6.18079 12.96 5.05346 20.9829 5.05346C29.0057 5.05346 35.5094 6.18079 35.5094 7.57141Z" fill="white"/>
<path d="M40.3516 14.2859C40.3516 15.6765 31.6799 16.8039 20.9829 16.8039C10.2858 16.8039 1.61407 15.6765 1.61407 14.2859C1.61407 12.8953 10.2858 11.768 20.9829 11.768C31.6799 11.768 40.3516 12.8953 40.3516 14.2859Z" fill="white"/>
<path d="M41.9657 21.0004C41.9657 22.3911 32.5714 23.5184 20.9829 23.5184C9.39434 23.5184 0 22.3911 0 21.0004C0 19.6098 9.39434 18.4825 20.9829 18.4825C32.5714 18.4825 41.9657 19.6098 41.9657 21.0004Z" fill="white"/>
<path d="M40.3516 27.7149C40.3516 29.1056 31.6799 30.2329 20.9829 30.2329C10.2858 30.2329 1.61407 29.1056 1.61407 27.7149C1.61407 26.3243 10.2858 25.197 20.9829 25.197C31.6799 25.197 40.3516 26.3243 40.3516 27.7149Z" fill="white"/>
<path d="M35.5094 34.4295C35.5094 35.8201 29.0057 36.9474 20.9829 36.9474C12.96 36.9474 6.45626 35.8201 6.45626 34.4295C6.45626 33.0388 12.96 31.9115 20.9829 31.9115C29.0057 31.9115 35.5094 33.0388 35.5094 34.4295Z" fill="white"/>
<path d="M22.5969 1.69621C22.5969 2.62329 21.8743 3.37484 20.9829 3.37484C20.0914 3.37484 19.3688 2.62329 19.3688 1.69621C19.3688 0.769126 20.0914 0.0175781 20.9829 0.0175781C21.8743 0.0175781 22.5969 0.769126 22.5969 1.69621Z" fill="white"/>
<path d="M22.5969 40.3047C22.5969 41.2317 21.8743 41.9833 20.9829 41.9833C20.0914 41.9833 19.3688 41.2317 19.3688 40.3047C19.3688 39.3776 20.0914 38.626 20.9829 38.626C21.8743 38.626 22.5969 39.3776 22.5969 40.3047Z" fill="white"/>
<path d="M59.3728 29.788C57.7248 29.788 56.2768 29.428 55.0288 28.708C53.7968 27.972 52.8288 26.948 52.1248 25.636C51.4368 24.324 51.0928 22.812 51.0928 21.1C51.0928 19.388 51.4368 17.884 52.1248 16.588C52.8288 15.276 53.7968 14.252 55.0288 13.516C56.2768 12.78 57.7248 12.412 59.3728 12.412C61.0368 12.412 62.4848 12.78 63.7168 13.516C64.9648 14.252 65.9328 15.276 66.6208 16.588C67.3088 17.884 67.6528 19.388 67.6528 21.1C67.6528 22.812 67.3088 24.324 66.6208 25.636C65.9328 26.948 64.9648 27.972 63.7168 28.708C62.4848 29.428 61.0368 29.788 59.3728 29.788ZM59.3728 28.012C60.6048 28.012 61.6848 27.74 62.6128 27.196C63.5568 26.636 64.2848 25.844 64.7968 24.82C65.3248 23.78 65.5888 22.54 65.5888 21.1C65.5888 19.66 65.3248 18.428 64.7968 17.404C64.2848 16.38 63.5568 15.596 62.6128 15.052C61.6848 14.492 60.6048 14.212 59.3728 14.212C58.1408 14.212 57.0528 14.492 56.1088 15.052C55.1808 15.596 54.4528 16.38 53.9248 17.404C53.4128 18.428 53.1568 19.66 53.1568 21.1C53.1568 22.54 53.4128 23.78 53.9248 24.82C54.4528 25.844 55.1808 26.636 56.1088 27.196C57.0528 27.74 58.1408 28.012 59.3728 28.012ZM70.1292 29.5V19.3H68.3292V17.596H70.1292V15.532C70.1292 14.38 70.4172 13.54 70.9932 13.012C71.5692 12.484 72.4092 12.22 73.5132 12.22H74.7132V13.948H73.8252C73.2172 13.948 72.7852 14.076 72.5292 14.332C72.2732 14.572 72.1452 14.988 72.1452 15.58V17.596H75.0732V19.3H72.1452V29.5H70.1292ZM77.1613 29.5V19.3H75.3613V17.596H77.1613V15.532C77.1613 14.38 77.4493 13.54 78.0253 13.012C78.6013 12.484 79.4413 12.22 80.5453 12.22H81.7453V13.948H80.8573C80.2493 13.948 79.8173 14.076 79.5613 14.332C79.3053 14.572 79.1773 14.988 79.1773 15.58V17.596H82.1053V19.3H79.1773V29.5H77.1613ZM87.6602 29.788C86.2362 29.788 85.0522 29.428 84.1082 28.708C83.1642 27.988 82.6122 27.012 82.4522 25.78H84.5162C84.6442 26.404 84.9722 26.948 85.5002 27.412C86.0442 27.86 86.7722 28.084 87.6842 28.084C88.5322 28.084 89.1562 27.908 89.5562 27.556C89.9562 27.188 90.1562 26.756 90.1562 26.26C90.1562 25.54 89.8922 25.06 89.3642 24.82C88.8522 24.58 88.1242 24.364 87.1802 24.172C86.5402 24.044 85.9002 23.86 85.2602 23.62C84.6202 23.38 84.0842 23.044 83.6522 22.612C83.2202 22.164 83.0042 21.58 83.0042 20.86C83.0042 19.82 83.3882 18.972 84.1562 18.316C84.9402 17.644 85.9962 17.308 87.3242 17.308C88.5882 17.308 89.6202 17.628 90.4202 18.268C91.2362 18.892 91.7082 19.788 91.8362 20.956H89.8442C89.7642 20.348 89.5002 19.876 89.0522 19.54C88.6202 19.188 88.0362 19.012 87.3002 19.012C86.5802 19.012 86.0202 19.164 85.6202 19.468C85.2362 19.772 85.0442 20.172 85.0442 20.668C85.0442 21.148 85.2922 21.524 85.7882 21.796C86.3002 22.068 86.9882 22.3 87.8522 22.492C88.5882 22.652 89.2842 22.852 89.9402 23.092C90.6122 23.316 91.1562 23.66 91.5722 24.124C92.0042 24.572 92.2202 25.228 92.2202 26.092C92.2362 27.164 91.8282 28.052 90.9962 28.756C90.1802 29.444 89.0682 29.788 87.6602 29.788ZM94.1402 29.5V12.22H96.1562V19.636C96.5562 18.9 97.1242 18.332 97.8602 17.932C98.5962 17.516 99.3962 17.308 100.26 17.308C101.636 17.308 102.74 17.74 103.572 18.604C104.404 19.452 104.82 20.764 104.82 22.54V29.5H102.828V22.756C102.828 20.276 101.828 19.036 99.8282 19.036C98.7882 19.036 97.9162 19.412 97.2122 20.164C96.5082 20.9 96.1562 21.956 96.1562 23.332V29.5H94.1402ZM112.339 29.788C111.219 29.788 110.211 29.532 109.315 29.02C108.419 28.508 107.707 27.788 107.179 26.86C106.667 25.916 106.411 24.812 106.411 23.548C106.411 22.284 106.675 21.188 107.203 20.26C107.731 19.316 108.443 18.588 109.339 18.076C110.251 17.564 111.267 17.308 112.387 17.308C113.507 17.308 114.515 17.564 115.411 18.076C116.307 18.588 117.011 19.316 117.523 20.26C118.051 21.188 118.315 22.284 118.315 23.548C118.315 24.812 118.051 25.916 117.523 26.86C116.995 27.788 116.275 28.508 115.363 29.02C114.467 29.532 113.459 29.788 112.339 29.788ZM112.339 28.06C113.027 28.06 113.667 27.892 114.259 27.556C114.851 27.22 115.331 26.716 115.699 26.044C116.067 25.372 116.251 24.54 116.251 23.548C116.251 22.556 116.067 21.724 115.699 21.052C115.347 20.38 114.875 19.876 114.283 19.54C113.691 19.204 113.059 19.036 112.387 19.036C111.699 19.036 111.059 19.204 110.467 19.54C109.875 19.876 109.395 20.38 109.027 21.052C108.659 21.724 108.475 22.556 108.475 23.548C108.475 24.54 108.659 25.372 109.027 26.044C109.395 26.716 109.867 27.22 110.443 27.556C111.035 27.892 111.667 28.06 112.339 28.06ZM120.158 29.5V17.596H121.982L122.15 19.876C122.518 19.092 123.078 18.468 123.83 18.004C124.582 17.54 125.51 17.308 126.614 17.308V19.42H126.062C125.358 19.42 124.71 19.548 124.118 19.804C123.526 20.044 123.054 20.46 122.702 21.052C122.35 21.644 122.174 22.46 122.174 23.5V29.5H120.158ZM132.823 29.788C131.687 29.788 130.679 29.532 129.799 29.02C128.919 28.492 128.223 27.764 127.711 26.836C127.215 25.908 126.967 24.812 126.967 23.548C126.967 22.3 127.215 21.212 127.711 20.284C128.207 19.34 128.895 18.612 129.775 18.1C130.671 17.572 131.703 17.308 132.871 17.308C134.023 17.308 135.015 17.572 135.847 18.1C136.695 18.612 137.343 19.292 137.791 20.14C138.239 20.988 138.463 21.9 138.463 22.876C138.463 23.052 138.455 23.228 138.439 23.404C138.439 23.58 138.439 23.78 138.439 24.004H128.959C129.007 24.916 129.215 25.676 129.583 26.284C129.967 26.876 130.439 27.324 130.999 27.628C131.575 27.932 132.183 28.084 132.823 28.084C133.655 28.084 134.351 27.892 134.911 27.508C135.471 27.124 135.879 26.604 136.135 25.948H138.127C137.807 27.052 137.191 27.972 136.279 28.708C135.383 29.428 134.231 29.788 132.823 29.788ZM132.823 19.012C131.863 19.012 131.007 19.308 130.255 19.9C129.519 20.476 129.095 21.324 128.983 22.444H136.471C136.423 21.372 136.055 20.532 135.367 19.924C134.679 19.316 133.831 19.012 132.823 19.012ZM144.631 29.5L150.823 12.7H152.959L159.127 29.5H156.991L155.455 25.18H148.303L146.743 29.5H144.631ZM148.903 23.548H154.855L151.879 15.244L148.903 23.548ZM165.288 29.788C164.104 29.788 163.064 29.516 162.168 28.972C161.288 28.428 160.6 27.684 160.104 26.74C159.624 25.796 159.384 24.724 159.384 23.524C159.384 22.324 159.632 21.26 160.128 20.332C160.624 19.388 161.312 18.652 162.192 18.124C163.072 17.58 164.112 17.308 165.312 17.308C166.288 17.308 167.152 17.508 167.904 17.908C168.656 18.308 169.24 18.868 169.656 19.588V12.22H171.672V29.5H169.848L169.656 27.532C169.272 28.108 168.72 28.628 168 29.092C167.28 29.556 166.376 29.788 165.288 29.788ZM165.504 28.036C166.304 28.036 167.008 27.852 167.616 27.484C168.24 27.1 168.72 26.572 169.056 25.9C169.408 25.228 169.584 24.444 169.584 23.548C169.584 22.652 169.408 21.868 169.056 21.196C168.72 20.524 168.24 20.004 167.616 19.636C167.008 19.252 166.304 19.06 165.504 19.06C164.72 19.06 164.016 19.252 163.392 19.636C162.784 20.004 162.304 20.524 161.952 21.196C161.616 21.868 161.448 22.652 161.448 23.548C161.448 24.444 161.616 25.228 161.952 25.9C162.304 26.572 162.784 27.1 163.392 27.484C164.016 27.852 164.72 28.036 165.504 28.036ZM177.43 29.5L172.918 17.596H175.03L178.606 27.556L182.206 17.596H184.27L179.758 29.5H177.43ZM186.778 14.956C186.378 14.956 186.042 14.828 185.77 14.572C185.514 14.3 185.386 13.964 185.386 13.564C185.386 13.18 185.514 12.86 185.77 12.604C186.042 12.348 186.378 12.22 186.778 12.22C187.162 12.22 187.49 12.348 187.762 12.604C188.034 12.86 188.17 13.18 188.17 13.564C188.17 13.964 188.034 14.3 187.762 14.572C187.49 14.828 187.162 14.956 186.778 14.956ZM185.77 29.5V17.596H187.786V29.5H185.77ZM194.896 29.788C193.472 29.788 192.288 29.428 191.344 28.708C190.4 27.988 189.848 27.012 189.688 25.78H191.752C191.88 26.404 192.208 26.948 192.736 27.412C193.28 27.86 194.008 28.084 194.92 28.084C195.768 28.084 196.392 27.908 196.792 27.556C197.192 27.188 197.392 26.756 197.392 26.26C197.392 25.54 197.128 25.06 196.6 24.82C196.088 24.58 195.36 24.364 194.416 24.172C193.776 24.044 193.136 23.86 192.496 23.62C191.856 23.38 191.32 23.044 190.888 22.612C190.456 22.164 190.24 21.58 190.24 20.86C190.24 19.82 190.624 18.972 191.392 18.316C192.176 17.644 193.232 17.308 194.56 17.308C195.824 17.308 196.856 17.628 197.656 18.268C198.472 18.892 198.944 19.788 199.072 20.956H197.08C197 20.348 196.736 19.876 196.288 19.54C195.856 19.188 195.272 19.012 194.536 19.012C193.816 19.012 193.256 19.164 192.856 19.468C192.472 19.772 192.28 20.172 192.28 20.668C192.28 21.148 192.528 21.524 193.024 21.796C193.536 22.068 194.224 22.3 195.088 22.492C195.824 22.652 196.52 22.852 197.176 23.092C197.848 23.316 198.392 23.66 198.808 24.124C199.24 24.572 199.456 25.228 199.456 26.092C199.472 27.164 199.064 28.052 198.232 28.756C197.416 29.444 196.304 29.788 194.896 29.788ZM206.8 29.788C205.68 29.788 204.672 29.532 203.776 29.02C202.88 28.508 202.168 27.788 201.64 26.86C201.128 25.916 200.872 24.812 200.872 23.548C200.872 22.284 201.136 21.188 201.664 20.26C202.192 19.316 202.904 18.588 203.8 18.076C204.712 17.564 205.728 17.308 206.848 17.308C207.968 17.308 208.976 17.564 209.872 18.076C210.768 18.588 211.472 19.316 211.984 20.26C212.512 21.188 212.776 22.284 212.776 23.548C212.776 24.812 212.512 25.916 211.984 26.86C211.456 27.788 210.736 28.508 209.824 29.02C208.928 29.532 207.92 29.788 206.8 29.788ZM206.8 28.06C207.488 28.06 208.128 27.892 208.72 27.556C209.312 27.22 209.792 26.716 210.16 26.044C210.528 25.372 210.712 24.54 210.712 23.548C210.712 22.556 210.528 21.724 210.16 21.052C209.808 20.38 209.336 19.876 208.744 19.54C208.152 19.204 207.52 19.036 206.848 19.036C206.16 19.036 205.52 19.204 204.928 19.54C204.336 19.876 203.856 20.38 203.488 21.052C203.12 21.724 202.936 22.556 202.936 23.548C202.936 24.54 203.12 25.372 203.488 26.044C203.856 26.716 204.328 27.22 204.904 27.556C205.496 27.892 206.128 28.06 206.8 28.06ZM214.619 29.5V17.596H216.443L216.611 19.876C216.979 19.092 217.539 18.468 218.291 18.004C219.043 17.54 219.971 17.308 221.075 17.308V19.42H220.523C219.819 19.42 219.171 19.548 218.579 19.804C217.987 20.044 217.515 20.46 217.163 21.052C216.811 21.644 216.635 22.46 216.635 23.5V29.5H214.619ZM223.674 34.78L226.626 28.348H225.93L221.202 17.596H223.386L227.322 26.86L231.498 17.596H233.586L225.786 34.78H223.674Z" fill="white"/>
</svg>
