<svg width="42" height="42" viewBox="0 0 42 42" fill="none" xmlns="http://www.w3.org/2000/svg">
<g id="Vector">
<path d="M35.5094 7.57092C35.5094 8.96154 29.0057 10.0889 20.9829 10.0889C12.96 10.0889 6.45626 8.96154 6.45626 7.57092C6.45626 6.1803 12.96 5.05298 20.9829 5.05298C29.0057 5.05298 35.5094 6.1803 35.5094 7.57092Z" fill="#100094"/>
<path d="M40.3516 14.2854C40.3516 15.6761 31.6799 16.8034 20.9829 16.8034C10.2858 16.8034 1.61407 15.6761 1.61407 14.2854C1.61407 12.8948 10.2858 11.7675 20.9829 11.7675C31.6799 11.7675 40.3516 12.8948 40.3516 14.2854Z" fill="#100094"/>
<path d="M41.9657 20.9999C41.9657 22.3906 32.5714 23.5179 20.9829 23.5179C9.39434 23.5179 0 22.3906 0 20.9999C0 19.6093 9.39434 18.482 20.9829 18.482C32.5714 18.482 41.9657 19.6093 41.9657 20.9999Z" fill="#100094"/>
<path d="M40.3516 27.7145C40.3516 29.1051 31.6799 30.2324 20.9829 30.2324C10.2858 30.2324 1.61407 29.1051 1.61407 27.7145C1.61407 26.3238 10.2858 25.1965 20.9829 25.1965C31.6799 25.1965 40.3516 26.3238 40.3516 27.7145Z" fill="#100094"/>
<path d="M35.5094 34.429C35.5094 35.8196 29.0057 36.9469 20.9829 36.9469C12.96 36.9469 6.45626 35.8196 6.45626 34.429C6.45626 33.0384 12.96 31.911 20.9829 31.911C29.0057 31.911 35.5094 33.0384 35.5094 34.429Z" fill="#100094"/>
<path d="M22.5969 1.69572C22.5969 2.6228 21.8743 3.37435 20.9829 3.37435C20.0914 3.37435 19.3688 2.6228 19.3688 1.69572C19.3688 0.768637 20.0914 0.0170898 20.9829 0.0170898C21.8743 0.0170898 22.5969 0.768637 22.5969 1.69572Z" fill="#100094"/>
<path d="M22.5969 40.3042C22.5969 41.2313 21.8743 41.9828 20.9829 41.9828C20.0914 41.9828 19.3688 41.2313 19.3688 40.3042C19.3688 39.3771 20.0914 38.6255 20.9829 38.6255C21.8743 38.6255 22.5969 39.3771 22.5969 40.3042Z" fill="#100094"/>
</g>
</svg>
